<svg xmlns="http://www.w3.org/2000/svg" xmlns:xlink="http://www.w3.org/1999/xlink" contentStyleType="text/css" height="706px" preserveAspectRatio="none" style="width:600px;height:706px;background:#FFFFFF;" version="1.1" viewBox="0 0 600 706" width="600px" zoomAndPan="magnify"><defs/><g><ellipse cx="300.1045" cy="20" fill="#222222" rx="10" ry="10" style="stroke:#222222;stroke-width:1.0;"/><rect fill="#FFFFFF" height="33.9688" rx="12.5" ry="12.5" style="stroke:#181818;stroke-width:0.5;" width="348.2422" x="125.9834" y="50"/><text fill="#000000" font-family="sans-serif" font-size="12" lengthAdjust="spacing" textLength="328.2422" x="135.9834" y="71.1387">Inputs : GPS coords (lat, lon, time) and user statement</text><rect fill="none" height="190.2031" style="stroke:#000000;stroke-width:1.5;" width="432.5898" x="83.8096" y="93.9688"/><path d="M301.0205,93.9688 L301.0205,103.2656 L291.0205,113.2656 L83.8096,113.2656 " fill="none" style="stroke:#000000;stroke-width:1.5;"/><text fill="#000000" font-family="sans-serif" font-size="14" lengthAdjust="spacing" textLength="207.2109" x="86.8096" y="107.9639">multimodal journey detection</text><rect fill="#F1F1F1" height="33.9688" rx="12.5" ry="12.5" style="stroke:#181818;stroke-width:0.5;" width="296.4746" x="151.8672" y="130.2656"/><text fill="#000000" font-family="sans-serif" font-size="12" lengthAdjust="spacing" textLength="276.4746" x="161.8672" y="151.4043">Search for Public Transports using public data</text><rect fill="#F1F1F1" height="33.9688" rx="12.5" ry="12.5" style="stroke:#181818;stroke-width:0.5;" width="317.3047" x="141.4521" y="184.2344"/><text fill="#000000" font-family="sans-serif" font-size="12" lengthAdjust="spacing" textLength="297.3047" x="151.4521" y="205.373">Deduce private modes between public transports</text><rect fill="#F1F1F1" height="33.9688" rx="12.5" ry="12.5" style="stroke:#181818;stroke-width:0.5;" width="412.5898" x="93.8096" y="238.2031"/><text fill="#000000" font-family="sans-serif" font-size="12" lengthAdjust="spacing" textLength="392.5898" x="103.8096" y="259.3418">Split consecutive private modes (using a classification algorithm)</text><rect fill="none" height="253.8125" style="stroke:#000000;stroke-width:1.5;" width="578.209" x="11" y="294.1719"/><path d="M112.1094,294.1719 L112.1094,303.4688 L102.1094,313.4688 L11,313.4688 " fill="none" style="stroke:#000000;stroke-width:1.5;"/><text fill="#000000" font-family="sans-serif" font-size="14" lengthAdjust="spacing" textLength="91.1094" x="14" y="308.167">trip checking</text><path d="M332.0117,334.8867 L332.0117,343.4531 L312.0117,347.4531 L332.0117,351.4531 L332.0117,360.0195 A0,0 0 0 0 332.0117,360.0195 L565.728,360.0195 A0,0 0 0 0 565.728,360.0195 L565.728,344.8867 L555.728,334.8867 L332.0117,334.8867 A0,0 0 0 0 332.0117,334.8867 " fill="#FEFFDD" style="stroke:#181818;stroke-width:0.5;"/><path d="M555.728,334.8867 L555.728,344.8867 L565.728,344.8867 L555.728,334.8867 " fill="#FEFFDD" style="stroke:#181818;stroke-width:0.5;"/><text fill="#000000" font-family="sans-serif" font-size="13" lengthAdjust="spacing" textLength="212.7163" x="338.0117" y="351.9536">We do the check for every mode</text><rect fill="#F1F1F1" height="33.9688" rx="12.5" ry="12.5" style="stroke:#181818;stroke-width:0.5;" width="23.8145" x="288.1973" y="330.4688"/><text fill="#000000" font-family="sans-serif" font-size="12" lengthAdjust="spacing" textLength="3.8145" x="298.1973" y="351.6074"> </text><polygon fill="#F1F1F1" points="252.6777,384.4375,347.5313,384.4375,359.5313,396.4375,347.5313,408.4375,252.6777,408.4375,240.6777,396.4375,252.6777,384.4375" style="stroke:#181818;stroke-width:0.5;"/><text fill="#000000" font-family="sans-serif" font-size="11" lengthAdjust="spacing" textLength="94.8535" x="252.6777" y="400.2456">transport mode ?</text><rect fill="#F1F1F1" height="47.9375" rx="12.5" ry="12.5" style="stroke:#181818;stroke-width:0.5;" width="195.5703" x="21" y="444.0469"/><text fill="#000000" font-family="sans-serif" font-size="12" lengthAdjust="spacing" textLength="175.5703" x="31" y="465.1855">use a classification algorithm</text><text fill="#000000" font-family="sans-serif" font-size="12" lengthAdjust="spacing" textLength="169.5234" x="34.8145" y="479.1543">(bayes or machine learning)</text><rect fill="#F1F1F1" height="33.9688" rx="12.5" ry="12.5" style="stroke:#181818;stroke-width:0.5;" width="100.4492" x="236.5703" y="444.0469"/><text fill="#000000" font-family="sans-serif" font-size="12" lengthAdjust="spacing" textLength="80.4492" x="246.5703" y="465.1855">nothing to do</text><rect fill="#F1F1F1" height="33.9688" rx="12.5" ry="12.5" style="stroke:#181818;stroke-width:0.5;" width="222.1895" x="357.0195" y="444.0469"/><text fill="#000000" font-family="sans-serif" font-size="12" lengthAdjust="spacing" textLength="202.1895" x="367.0195" y="465.1855">already detected in previous step</text><polygon fill="#F1F1F1" points="300.1045,511.9844,300.1045,511.9844,312.1045,523.9844,300.1045,535.9844,300.1045,535.9844,288.1045,523.9844,300.1045,511.9844" style="stroke:#181818;stroke-width:0.5;"/><rect fill="#F1F1F1" height="33.9688" rx="12.5" ry="12.5" style="stroke:#181818;stroke-width:0.5;" width="119.3457" x="240.4316" y="567.9844"/><text fill="#000000" font-family="sans-serif" font-size="12" lengthAdjust="spacing" textLength="99.3457" x="250.4316" y="589.123">Check inter trips</text><rect fill="#FFFFFF" height="33.9688" rx="12.5" ry="12.5" style="stroke:#181818;stroke-width:0.5;" width="207.5469" x="196.3311" y="621.9531"/><text fill="#000000" font-family="sans-serif" font-size="12" lengthAdjust="spacing" textLength="187.5469" x="206.3311" y="643.0918">Output : Journey verified or not</text><ellipse cx="300.1045" cy="685.9219" fill="none" rx="10" ry="10" style="stroke:#222222;stroke-width:1.5;"/><line style="stroke:#222222;stroke-width:2.5;" x1="293.9173" x2="306.2917" y1="679.7347" y2="692.1091"/><line style="stroke:#222222;stroke-width:2.5;" x1="306.2917" x2="293.9173" y1="679.7347" y2="692.1091"/><line style="stroke:#181818;stroke-width:1.0;" x1="300.1045" x2="300.1045" y1="30" y2="50"/><polygon fill="#181818" points="296.1045,40,300.1045,50,304.1045,40,300.1045,44" style="stroke:#181818;stroke-width:1.0;"/><line style="stroke:#181818;stroke-width:1.0;" x1="300.1045" x2="300.1045" y1="164.2344" y2="184.2344"/><polygon fill="#181818" points="296.1045,174.2344,300.1045,184.2344,304.1045,174.2344,300.1045,178.2344" style="stroke:#181818;stroke-width:1.0;"/><line style="stroke:#181818;stroke-width:1.0;" x1="300.1045" x2="300.1045" y1="218.2031" y2="238.2031"/><polygon fill="#181818" points="296.1045,228.2031,300.1045,238.2031,304.1045,228.2031,300.1045,232.2031" style="stroke:#181818;stroke-width:1.0;"/><line style="stroke:#181818;stroke-width:1.0;" x1="300.1045" x2="300.1045" y1="83.9688" y2="130.2656"/><polygon fill="#181818" points="296.1045,120.2656,300.1045,130.2656,304.1045,120.2656,300.1045,124.2656" style="stroke:#181818;stroke-width:1.0;"/><line style="stroke:#181818;stroke-width:1.0;" x1="240.6777" x2="118.7852" y1="396.4375" y2="396.4375"/><line style="stroke:#181818;stroke-width:1.0;" x1="118.7852" x2="118.7852" y1="396.4375" y2="444.0469"/><polygon fill="#181818" points="114.7852,434.0469,118.7852,444.0469,122.7852,434.0469,118.7852,438.0469" style="stroke:#181818;stroke-width:1.0;"/><text fill="#000000" font-family="sans-serif" font-size="11" lengthAdjust="spacing" textLength="66.5854" x="118.7852" y="424.0503">walk or bike</text><line style="stroke:#181818;stroke-width:1.0;" x1="359.5313" x2="468.1143" y1="396.4375" y2="396.4375"/><line style="stroke:#181818;stroke-width:1.0;" x1="468.1143" x2="468.1143" y1="396.4375" y2="444.0469"/><polygon fill="#181818" points="464.1143,434.0469,468.1143,444.0469,472.1143,434.0469,468.1143,438.0469" style="stroke:#181818;stroke-width:1.0;"/><text fill="#000000" font-family="sans-serif" font-size="11" lengthAdjust="spacing" textLength="89.9819" x="468.1143" y="424.0503">luas, bus or dart</text><line style="stroke:#181818;stroke-width:1.0;" x1="300.1045" x2="300.1045" y1="408.4375" y2="420.3073"/><line style="stroke:#181818;stroke-width:1.0;" x1="300.1045" x2="286.7949" y1="420.3073" y2="420.3073"/><line style="stroke:#181818;stroke-width:1.0;" x1="286.7949" x2="286.7949" y1="420.3073" y2="444.0469"/><polygon fill="#181818" points="282.7949,434.0469,286.7949,444.0469,290.7949,434.0469,286.7949,438.0469" style="stroke:#181818;stroke-width:1.0;"/><text fill="#000000" font-family="sans-serif" font-size="11" lengthAdjust="spacing" textLength="17.311" x="286.7949" y="425.0503">car</text><line style="stroke:#181818;stroke-width:1.0;" x1="118.7852" x2="118.7852" y1="491.9844" y2="523.9844"/><line style="stroke:#181818;stroke-width:1.0;" x1="118.7852" x2="288.1045" y1="523.9844" y2="523.9844"/><polygon fill="#181818" points="278.1045,519.9844,288.1045,523.9844,278.1045,527.9844,282.1045,523.9844" style="stroke:#181818;stroke-width:1.0;"/><line style="stroke:#181818;stroke-width:1.0;" x1="468.1143" x2="468.1143" y1="478.0156" y2="523.9844"/><line style="stroke:#181818;stroke-width:1.0;" x1="468.1143" x2="312.1045" y1="523.9844" y2="523.9844"/><polygon fill="#181818" points="322.1045,519.9844,312.1045,523.9844,322.1045,527.9844,318.1045,523.9844" style="stroke:#181818;stroke-width:1.0;"/><line style="stroke:#181818;stroke-width:1.0;" x1="286.7949" x2="286.7949" y1="478.0156" y2="496.9844"/><line style="stroke:#181818;stroke-width:1.0;" x1="286.7949" x2="300.1045" y1="496.9844" y2="496.9844"/><line style="stroke:#181818;stroke-width:1.0;" x1="300.1045" x2="300.1045" y1="496.9844" y2="511.9844"/><polygon fill="#181818" points="296.1045,501.9844,300.1045,511.9844,304.1045,501.9844,300.1045,505.9844" style="stroke:#181818;stroke-width:1.0;"/><line style="stroke:#181818;stroke-width:1.0;" x1="300.1045" x2="300.1045" y1="364.4375" y2="384.4375"/><polygon fill="#181818" points="296.1045,374.4375,300.1045,384.4375,304.1045,374.4375,300.1045,378.4375" style="stroke:#181818;stroke-width:1.0;"/><line style="stroke:#181818;stroke-width:1.0;" x1="300.1045" x2="300.1045" y1="272.1719" y2="330.4688"/><polygon fill="#181818" points="296.1045,320.4688,300.1045,330.4688,304.1045,320.4688,300.1045,324.4688" style="stroke:#181818;stroke-width:1.0;"/><line style="stroke:#181818;stroke-width:1.0;" x1="300.1045" x2="300.1045" y1="535.9844" y2="567.9844"/><polygon fill="#181818" points="296.1045,557.9844,300.1045,567.9844,304.1045,557.9844,300.1045,561.9844" style="stroke:#181818;stroke-width:1.0;"/><line style="stroke:#181818;stroke-width:1.0;" x1="300.1045" x2="300.1045" y1="601.9531" y2="621.9531"/><polygon fill="#181818" points="296.1045,611.9531,300.1045,621.9531,304.1045,611.9531,300.1045,615.9531" style="stroke:#181818;stroke-width:1.0;"/><line style="stroke:#181818;stroke-width:1.0;" x1="300.1045" x2="300.1045" y1="655.9219" y2="675.9219"/><polygon fill="#181818" points="296.1045,665.9219,300.1045,675.9219,304.1045,665.9219,300.1045,669.9219" style="stroke:#181818;stroke-width:1.0;"/><!--SRC=[VLAxZjim4Epv5ODB8mF-0hj8SGS4INC7E43g5RbdRKoH0hcqOGJvzrj9je5BaPBaF7Q6MvMAElVbCeZoxdkQcbRiyEtj09zp2HLT9DqYvhI5oiWRK0febGkgalB8IVVEJIOZAZdXQMpHW3bGnE_SIk8h0Ylx-VK9VnomEp0LF-0z5xorFeh7pqAfJhcOUwkIZfZM-q1A-vdomg5vnbJaRAumVQxeMI_CwGxMXyX2EKnHr6AaohwfdFzbTwiJmKUgLTx5qvA0uZ4NqM7SxDrVzocR5fdW1_OdOzx2x5tAfbdaEAYTWL-CaA43hyWb9f-vN1TVWt0ACyNLYwZLq3tcNW3ukd6UAgExK3p1oBsSU3DRMUt_6NSsxtgwMZGZZUG7IOneNIURriBSP3sLHSrc6EO2DDkyZzVOg6xHjqKaMFG5Ix4mXVjFSe1OwuNFaWrObIVZMwmraPjhspqluIMfhShScttAVSzUczgYsPxzk2s8jME1JDOyRQnLx0C0]--></g></svg>